# xmcd
#
# Track frame offsets:
#	150
#	12085
#	26163
#	44387
#	62123
#	78268
#	96171
#	113478
#	130532
#	150703
#	164652
#	196447
#	209391
#
# Disc length: 2947 seconds
#
# Revision: 0
# Processed by: cddbd v1.5.2PL0 Copyright (c) Steve Scherf et al.
# Submitted via: EasyCDDAExtractor 12.0.1.1
#
DISCID=a60b810d
DTITLE=Alan Jackson - Greatest Hits Volume 2 [cd1]
DYEAR=2003
DGENRE=Country
TTITLE0=Little Bitty
TTITLE1=Everything I Love
TTITLE2=Who's Cheatin' Who
TTITLE3=There Goes
TTITLE4=Hole In The Wall
TTITLE5=I'll Go On Loving You
TTITLE6=Right On The Money
TTITLE7=Gone Crazy
TTITLE8=Little Man
TTITLE9=Pop A Top
TTITLE10=The Blues Man
TTITLE11=It Must Be Love
TTITLE12=Www Dot Memory
EXTD=
EXTT0=
EXTT1=
EXTT2=
EXTT3=
EXTT4=
EXTT5=
EXTT6=
EXTT7=
EXTT8=
EXTT9=
EXTT10=
EXTT11=
EXTT12=
PLAYORDER=
